<?xml version="1.0" encoding="utf-8"?>
<!DOCTYPE svg PUBLIC "-//W3C//DTD SVG 20010904//EN" "http://www.w3.org/TR/2001/REC-SVG-20010904/DTD/svg10.dtd">
<svg height="120" preserveAspectRatio="xMidYMid meet" version="1.0" viewBox="0 0 1088.000000 1088.000000" width="120" xmlns="http://www.w3.org/2000/svg">
	<g fill="#000000" stroke="none" transform="translate(0.000000,1088.000000) scale(0.100000,-0.100000)">
		<path d="M5475 10053 c-42 -8 -153 -129 -195 -213 -45 -87 -59 -165 -55 -295 4 -116 5 -132 18 -165 3 -8 10 -37 16 -63 12 -50 119 -309 150 -363 l18 -31 -41 -61 c-57 -83 -121 -149 -232 -241 -17 -14 -54 -32 -54 -26 0 3 4 13 9 23 22 41 36 94 47 182 5 43 8 129 4 140 -1 3 -3 23 -5 45 -9 96 -24 149 -73 257 -49 109 -83 160 -151 228 -121 121 -271 195 -476 236 -88 17 -122 20 -210 18 -96 -1 -181 -9 -217 -20 -10 -3 -29 -7 -42 -10 -98 -17 -296 -105 -377 -166 -63 -47 -206 -195 -240 -248 -47 -72 -93 -173 -121 -263 -13 -42 -24 -64 -26 -52 -6 41 -35 111 -63 156 -45 71 -203 189 -254 189 -13 0 -15 -8 -10 -42 3 -24 8 -52 9 -63 4 -28 -16 -95 -59 -198 -42 -101 -48 -148 -30 -218 19 -71 55 -127 132 -204 69 -69 214 -185 232 -185 12 0 19 -36 27 -140 7 -92 11 -135 14 -135 1 0 3 -9 5 -20 2 -19 8 -44 19 -90 8 -34 44 -138 62 -180 27 -63 27 -64 -22 -49 -198 59 -439 235 -553 402 -122 180 -173 357 -173 592 0 162 13 233 70 390 11 32 15 68 15 150 -1 124 -6 179 -18 172 -6 -4 -28 -19 -50 -33 -22 -15 -73 -46 -114 -69 -224 -129 -310 -362 -219 -595 19 -49 75 -155 87 -165 3 -3 20 -20 36 -39 l30 -33 -40 17 c-22 10 -46 18 -52 18 -7 0 -13 4 -13 9 0 5 -4 7 -9 4 -4 -3 -23 -1 -42 5 -32 9 -160 13 -204 6 -71 -12 -120 -35 -164 -78 -58 -56 -85 -110 -84 -169 1 -100 26 -146 100 -184 60 -30 166 -23 204 13 40 39 53 106 29 151 -11 20 -11 20 -33 -5 -29 -32 -65 -37 -100 -13 -22 16 -27 26 -24 53 5 41 46 86 81 88 14 1 26 6 26 10 0 5 4 6 10 2 5 -3 31 -7 57 -9 87 -7 166 -36 233 -84 37 -27 122 -111 153 -151 44 -55 113 -179 105 -186 -2 -1 -34 -5 -73 -9 -94 -8 -150 -26 -258 -85 -105 -56 -190 -87 -255 -90 -20 -1 24 -73 76 -127 53 -53 167 -110 237 -119 113 -14 215 -3 360 40 50 15 98 29 108 31 9 2 27 7 40 10 54 13 151 10 186 -7 32 -15 69 -31 166 -74 17 -8 65 -26 108 -41 87 -30 88 -31 152 -114 50 -64 50 -66 33 -68 -7 0 -49 -4 -93 -9 -139 -13 -608 -6 -745 12 -139 19 -314 77 -485 161 -205 101 -301 168 -431 298 -151 152 -255 352 -241 459 17 121 20 125 300 393 78 75 103 106 136 172 22 44 38 82 35 85 -4 3 -2 12 2 19 12 18 14 31 21 127 6 90 -5 157 -42 250 l-22 53 -47 -46 c-26 -25 -61 -54 -77 -63 -16 -10 -29 -21 -29 -25 0 -4 -5 -8 -11 -8 -23 0 -133 -75 -183 -124 -96 -94 -176 -263 -179 -373 -1 -26 -17 -12 -18 15 -1 15 -3 36 -5 47 -2 11 -4 30 -6 43 -1 12 -5 22 -8 22 -3 0 -6 18 -7 40 -2 22 -7 49 -12 59 -6 10 -12 29 -14 42 -3 13 -11 47 -20 74 -8 28 -15 55 -16 60 -1 6 -6 26 -11 45 -10 39 -22 123 -23 158 -1 32 -18 12 -60 -73 -71 -143 -92 -272 -68 -415 11 -67 44 -165 75 -222 32 -60 46 -107 52 -169 2 -30 7 -59 9 -66 2 -7 1 -14 -3 -17 -5 -3 -14 16 -22 42 -7 26 -17 54 -21 62 -4 8 -22 44 -39 79 -46 95 -85 148 -165 227 -99 96 -219 158 -350 179 -93 15 -261 4 -405 -27 -52 -11 -101 -20 -107 -21 -29 -1 -8 -25 60 -67 117 -73 245 -195 279 -267 6 -13 15 -23 20 -23 4 0 8 -6 8 -13 0 -11 61 -108 84 -134 6 -6 28 -32 49 -56 78 -94 217 -180 347 -213 67 -17 116 -22 213 -23 60 -1 70 -4 74 -21 3 -11 9 -20 13 -20 5 0 12 -10 16 -22 12 -40 140 -226 186 -271 25 -24 15 -36 -30 -36 -20 1 -62 -2 -92 -6 -130 -16 -139 -14 -305 59 -72 32 -107 45 -130 49 -11 1 -24 5 -30 8 -5 3 -22 5 -37 4 -16 0 -28 3 -28 8 0 4 -3 6 -7 4 -5 -3 -33 -7 -63 -11 -78 -9 -189 -66 -239 -122 -22 -26 -39 -49 -37 -53 3 -4 17 -8 33 -9 69 -6 106 -24 203 -102 85 -68 109 -78 197 -75 60 2 61 2 50 -19 -7 -11 -15 -23 -18 -26 -12 -10 -52 -134 -74 -230 -47 -208 -110 -307 -206 -325 -27 -5 -85 21 -102 46 -15 21 -16 29 -4 65 12 34 87 59 102 34 3 -5 10 -10 15 -10 7 0 8 18 1 63 -2 17 -74 77 -94 78 -123 7 -230 -91 -222 -204 3 -51 55 -142 87 -152 10 -4 18 -10 18 -15 0 -5 13 -11 30 -15 16 -4 30 -10 30 -14 0 -9 12 -10 93 -11 31 0 67 4 78 10 11 6 29 13 40 15 30 6 148 88 204 142 52 50 82 85 125 144 71 98 185 174 322 214 64 18 79 21 198 40 76 11 367 13 425 2 11 -2 39 -7 63 -11 51 -9 55 -21 7 -24 -66 -5 -159 -40 -197 -76 -21 -19 -68 -77 -104 -128 -67 -92 -136 -168 -154 -168 -6 0 -10 -7 -10 -15 0 -8 9 -15 21 -15 11 0 28 -4 37 -9 22 -11 124 -24 184 -22 153 4 263 59 330 166 14 22 25 42 26 45 2 14 25 70 44 108 22 45 55 75 70 66 18 -11 162 -44 263 -59 22 -4 51 -8 65 -11 14 -2 48 -6 75 -9 28 -3 66 -7 85 -9 19 -2 48 -4 65 -5 l29 -1 -45 -47 c-69 -73 -98 -117 -118 -180 -10 -32 -17 -61 -15 -64 2 -4 19 -4 36 0 58 12 136 4 253 -26 128 -33 249 -32 333 2 17 8 32 12 32 10 0 -14 79 61 155 147 48 55 80 78 119 85 11 2 22 6 24 8 3 3 19 -10 36 -28 59 -60 204 -178 476 -384 96 -73 190 -145 209 -160 19 -16 39 -30 45 -32 6 -2 16 -9 22 -15 6 -6 65 -52 130 -103 65 -50 143 -117 172 -148 l53 -56 3 -257 c4 -272 10 -359 32 -497 3 -16 7 -41 9 -55 7 -39 42 -189 58 -247 14 -48 14 -55 -4 -85 -57 -102 -124 -239 -162 -334 -56 -139 -59 -147 -63 -159 -2 -5 -14 -41 -28 -80 -25 -70 -103 -331 -110 -370 -2 -11 -7 -27 -10 -35 -3 -8 -8 -26 -10 -40 -3 -14 -8 -38 -11 -55 -3 -16 -8 -37 -11 -45 -7 -20 -46 -230 -60 -325 -3 -18 -6 -94 -19 -420 -7 -179 -13 -293 -20 -355 -3 -30 -7 -75 -10 -100 -4 -56 -15 -147 -20 -180 -2 -14 -6 -47 -10 -75 -3 -27 -7 -59 -9 -70 -2 -11 -7 -42 -11 -70 -4 -27 -9 -61 -12 -75 -2 -14 -5 -34 -7 -45 -2 -11 -4 -20 -5 -20 -1 0 -4 -11 -6 -25 -5 -35 -21 -111 -29 -138 -3 -9 -8 -30 -10 -47 -3 -16 -17 -68 -31 -115 -14 -47 -27 -92 -29 -100 -11 -41 -69 -197 -78 -208 -6 -6 -8 -12 -4 -12 14 0 -119 -240 -170 -307 -71 -93 -123 -139 -206 -182 -66 -35 -84 -82 -53 -141 28 -53 117 -59 205 -13 14 7 28 13 32 13 4 0 34 13 65 28 54 26 67 28 203 30 149 2 289 9 373 17 127 13 159 17 253 36 183 35 399 114 548 201 46 28 49 28 73 12 66 -42 264 -134 328 -151 6 -1 48 -13 95 -27 47 -14 101 -28 120 -31 19 -3 43 -8 52 -11 9 -3 32 -7 50 -9 18 -2 53 -6 78 -10 25 -4 70 -8 100 -10 30 -2 55 -4 55 -5 0 -3 146 -8 300 -10 88 -2 165 -6 170 -10 20 -14 181 -78 223 -90 81 -21 142 21 142 99 0 20 -10 39 -30 58 -17 15 -33 28 -38 28 -20 1 -105 61 -140 100 -80 86 -132 167 -206 320 -36 73 -98 232 -110 280 -2 6 -6 17 -9 25 -4 8 -8 24 -10 35 -2 11 -7 27 -10 35 -3 8 -11 38 -17 65 -7 28 -14 57 -16 65 -8 34 -35 157 -39 180 -2 14 -6 36 -9 50 -11 54 -36 208 -41 255 -4 28 -8 61 -10 75 -10 75 -17 135 -21 182 -2 29 -6 82 -9 118 -14 175 -25 406 -30 605 -2 125 -18 238 -61 440 -32 150 -32 150 -34 150 -2 0 -5 14 -13 55 -3 14 -17 66 -32 115 -14 50 -28 98 -30 108 -2 9 -6 21 -9 25 -3 5 -7 19 -10 33 -3 13 -19 62 -37 109 -17 47 -31 91 -32 98 0 6 -3 12 -6 12 -4 0 -13 21 -20 47 -8 25 -20 58 -27 72 -30 63 -54 121 -54 130 0 6 -5 11 -11 11 -5 0 -7 5 -4 10 3 5 1 10 -6 10 -7 0 -10 3 -7 6 4 3 -18 48 -48 101 -30 52 -52 99 -49 103 2 4 16 54 31 111 28 112 28 111 39 179 4 25 9 54 11 65 2 11 7 45 10 75 3 30 8 75 10 100 3 25 7 164 10 310 l5 264 72 71 c40 38 120 105 177 148 58 43 114 86 125 96 11 9 36 28 55 41 19 14 46 35 60 47 14 13 28 23 32 23 3 0 13 6 20 13 7 6 60 48 118 92 101 76 200 153 229 177 7 6 52 43 100 81 47 39 95 80 106 93 52 57 96 45 183 -48 154 -166 191 -186 352 -188 69 -1 89 2 185 26 107 27 147 30 253 23 33 -2 34 2 15 57 -21 64 -69 138 -124 192 l-43 42 32 1 c18 1 35 2 40 3 4 1 43 6 87 11 114 12 239 30 275 40 3 1 23 5 45 9 22 4 62 14 89 22 55 16 56 15 83 -46 20 -45 36 -84 38 -90 5 -20 39 -71 66 -98 76 -77 175 -111 315 -107 90 3 105 5 182 26 l44 12 -33 26 c-57 45 -75 64 -139 156 -34 50 -79 105 -99 123 -39 37 -105 71 -136 72 -13 0 -16 3 -9 10 6 6 47 12 92 13 45 1 82 6 82 10 0 5 4 6 9 3 5 -3 58 -8 117 -11 60 -3 123 -7 139 -9 70 -10 113 -18 158 -31 26 -8 47 -12 47 -10 0 10 174 -71 204 -94 24 -19 96 -92 111 -112 94 -129 200 -226 311 -283 121 -63 254 -45 338 43 91 95 79 224 -26 296 -75 51 -150 49 -198 -5 -41 -45 -55 -121 -18 -93 19 14 61 14 79 0 63 -48 31 -128 -56 -140 -39 -5 -73 10 -110 49 -46 49 -55 62 -55 78 0 8 -4 18 -10 21 -9 6 -25 54 -44 133 -3 9 -5 19 -6 22 -1 3 -3 10 -4 15 -9 58 -48 180 -70 223 -9 18 -16 35 -15 38 0 4 -4 10 -9 13 -6 4 20 6 57 7 69 0 123 22 176 71 46 42 103 82 109 76 3 -3 6 -1 6 4 0 6 19 14 43 18 56 9 77 15 77 23 0 26 -141 142 -173 142 -7 0 -17 3 -21 7 -7 8 -10 8 -83 21 -29 5 -55 7 -58 4 -3 -3 -23 -7 -46 -8 -42 -3 -116 -25 -186 -56 -23 -10 -44 -17 -46 -16 -2 2 -10 -2 -18 -9 -24 -20 -115 -50 -145 -48 -16 1 -54 6 -84 10 -30 5 -74 8 -97 8 -24 0 -43 3 -43 6 0 4 12 20 28 38 46 52 60 71 99 130 21 32 40 60 43 63 3 3 18 30 34 60 16 30 32 58 35 61 3 4 56 10 116 14 158 9 155 9 155 19 0 5 3 7 6 3 8 -7 104 26 157 55 65 35 151 103 197 155 50 56 120 157 120 172 0 6 5 11 12 11 6 0 9 3 5 6 -3 4 -1 12 6 20 7 7 23 29 37 50 27 40 159 174 171 174 4 0 15 7 24 17 9 9 47 35 83 59 l66 42 -45 12 c-24 6 -51 13 -60 16 -10 3 -31 7 -48 9 -17 3 -46 8 -64 11 -71 13 -322 13 -372 0 -128 -35 -225 -92 -317 -187 -92 -95 -154 -198 -203 -335 l-24 -69 3 75 c5 83 6 90 47 174 16 33 29 65 29 73 0 7 4 13 8 13 5 0 9 6 10 13 1 6 11 45 22 86 27 101 29 195 5 311 -11 55 -81 208 -110 238 -9 10 -12 4 -13 -30 -1 -24 -4 -54 -7 -68 -3 -14 -7 -36 -10 -50 -2 -14 -20 -83 -40 -154 -19 -71 -37 -140 -40 -155 -3 -14 -7 -37 -10 -51 -3 -14 -8 -50 -11 -80 -6 -56 -13 -78 -15 -44 0 10 -2 26 -4 34 -2 8 -7 29 -10 45 -19 98 -85 222 -158 296 -69 70 -68 69 -180 135 -43 26 -99 68 -126 93 -52 52 -68 48 -87 -24 -33 -127 -35 -141 -30 -223 2 -48 5 -87 6 -87 2 0 5 -15 14 -53 20 -89 107 -216 207 -302 113 -96 215 -204 237 -251 33 -67 38 -137 17 -204 -41 -132 -113 -244 -229 -360 -95 -94 -110 -107 -210 -175 -61 -42 -318 -182 -328 -179 -4 1 -40 -12 -73 -26 -113 -49 -282 -82 -470 -92 -276 -15 -656 -6 -677 15 -7 7 23 47 87 117 21 24 57 43 125 68 52 20 118 45 145 58 28 12 52 23 55 24 3 0 25 10 50 22 61 28 149 23 281 -16 57 -17 113 -33 124 -35 11 -2 38 -9 61 -14 65 -15 219 -12 277 5 111 33 183 84 247 177 17 26 30 49 28 50 -1 1 -30 8 -63 16 -55 12 -223 83 -235 100 -6 7 -79 37 -125 51 -16 5 -61 12 -100 15 -38 4 -72 8 -74 10 -2 2 14 34 34 71 47 85 133 193 183 230 20 15 39 31 42 34 8 11 125 68 146 72 10 1 24 5 29 9 6 3 48 5 94 4 80 -2 84 -3 112 -34 46 -51 35 -104 -24 -125 -22 -8 -72 16 -81 39 -6 16 -8 15 -22 -4 -34 -49 -13 -129 44 -164 26 -16 50 -22 93 -21 73 1 124 26 163 81 24 34 29 51 29 104 1 167 -142 277 -353 270 -69 -2 -154 -21 -214 -47 l-40 -17 22 24 c51 54 66 78 107 163 56 117 73 218 54 322 -13 70 -74 180 -130 234 -41 40 -205 149 -225 149 -3 0 -17 11 -31 25 -15 13 -28 23 -29 22 -8 -8 -17 -113 -16 -177 2 -107 1 -105 38 -217 59 -179 65 -423 14 -613 -26 -98 -116 -288 -142 -298 -4 -2 -8 -9 -8 -16 0 -15 -130 -150 -195 -202 -27 -22 -72 -54 -100 -71 -50 -31 -195 -104 -195 -98 0 2 -22 -5 -50 -16 -27 -10 -50 -18 -50 -16 0 2 15 41 34 88 33 82 63 183 72 244 3 17 7 41 9 55 6 39 18 173 19 198 0 15 12 32 31 45 16 12 32 25 33 29 2 4 8 8 13 8 11 0 15 3 78 57 130 111 214 219 229 296 12 57 4 131 -19 182 -12 28 -23 52 -24 55 -1 3 -5 12 -8 20 -38 86 -46 140 -33 218 10 53 -3 55 -83 12 -115 -62 -217 -187 -237 -294 l-7 -39 -37 105 c-45 127 -90 211 -163 298 -123 149 -298 267 -472 319 -88 27 -206 51 -216 45 -4 -2 -10 -1 -13 4 -5 9 -219 8 -280 -2 -105 -15 -353 -99 -376 -125 -3 -4 -24 -19 -48 -34 -56 -37 -140 -120 -181 -180 -58 -85 -139 -276 -126 -297 3 -6 2 -10 -3 -10 -5 0 -9 -6 -9 -12 0 -7 -3 -29 -6 -48 -9 -53 -11 -149 -5 -156 4 -3 4 -12 2 -19 -5 -11 1 -48 22 -154 3 -13 9 -32 14 -42 21 -38 5 -39 -36 -3 -117 104 -244 252 -244 286 0 6 14 41 32 77 17 36 33 71 34 76 2 6 19 54 39 109 19 54 37 112 40 130 3 17 8 42 10 56 3 14 7 35 9 47 5 23 19 151 19 168 0 31 -15 139 -22 158 -5 12 -9 26 -9 30 0 33 -71 154 -118 202 -70 71 -97 86 -139 78z m48 -230 c46 -49 60 -98 64 -222 3 -132 -9 -223 -52 -391 -2 -8 -4 -15 -5 -15 -1 0 -3 -11 -5 -25 -6 -43 -25 -84 -35 -74 -8 8 -56 138 -65 174 -38 160 -47 222 -45 315 1 74 19 175 32 175 5 0 7 4 3 9 -5 9 61 81 75 81 3 0 18 -12 33 -27z m-1183 -237 c19 -3 49 -8 65 -10 148 -23 361 -137 440 -234 11 -14 30 -36 42 -49 33 -37 99 -181 113 -248 17 -83 15 -209 -4 -277 -14 -45 -66 -138 -79 -138 -2 0 -4 27 -5 59 -2 70 -17 142 -38 182 -8 16 -12 29 -9 29 11 0 -55 88 -93 125 -23 21 -44 54 -52 78 -45 151 -164 289 -315 364 -57 29 -164 66 -192 66 -13 0 -23 2 -23 6 0 6 -58 12 -152 14 -73 2 -62 12 32 29 72 14 195 15 270 4z m2550 1 c114 -19 134 -32 52 -33 -59 -1 -187 -17 -187 -24 0 -1 -10 -3 -23 -6 -50 -9 -139 -46 -203 -84 -121 -72 -215 -187 -260 -316 -11 -32 -30 -68 -42 -79 -65 -59 -123 -154 -142 -230 -14 -57 -15 -70 -16 -127 -1 -32 -3 -58 -5 -58 -11 0 -66 89 -76 124 -18 64 -18 66 -18 151 -1 131 30 239 97 349 29 48 179 196 198 196 7 0 15 3 17 8 9 21 170 90 253 108 58 13 77 16 125 21 30 3 56 6 57 7 4 3 146 -3 173 -7z m-2835 -138 c70 -3 178 -44 255 -94 65 -43 120 -96 120 -115 0 -5 4 -10 8 -10 11 0 33 -46 25 -53 -3 -3 -15 -2 -27 2 -32 12 -168 4 -192 -12 -7 -4 -18 0 -25 9 -16 19 -129 97 -129 89 0 -3 -14 2 -31 11 -94 48 -286 43 -436 -11 -35 -12 -63 -21 -63 -19 0 4 21 29 57 69 42 47 220 135 237 118 3 -4 6 -2 6 4 0 5 9 9 19 8 10 -1 41 2 67 5 27 3 51 5 54 4 3 -1 28 -3 55 -5z m3006 -3 c77 -6 179 -41 239 -81 89 -60 147 -141 77 -107 -86 42 -289 64 -377 43 -25 -7 -53 -13 -63 -16 -29 -7 -110 -54 -146 -85 -32 -29 -83 -40 -95 -22 -3 5 -46 7 -95 6 l-91 -2 17 30 c21 36 119 138 132 138 5 0 16 6 23 13 36 34 175 82 248 86 30 1 56 4 59 6 2 3 7 2 11 0 4 -3 32 -7 61 -9z m-4545 -205 c-4 -42 -29 -120 -56 -172 -8 -16 -29 -86 -36 -122 -6 -31 -5 -120 2 -177 l6 -55 -41 51 c-63 79 -89 144 -86 212 4 78 12 110 40 157 39 66 134 153 168 155 4 0 5 -22 3 -49z m6005 17 c46 -33 119 -108 120 -123 0 -2 7 -21 15 -41 21 -51 27 -134 14 -185 -12 -45 -47 -103 -93 -158 l-29 -35 6 55 c10 73 12 169 5 169 -3 0 -6 6 -6 13 0 17 -34 130 -42 142 -28 38 -62 195 -42 195 4 0 28 -14 52 -32z m683 -109 c80 -55 155 -135 182 -193 36 -79 62 -235 41 -245 -19 -8 -116 57 -178 118 -70 70 -134 178 -145 248 -9 48 -12 144 -6 161 3 7 14 -1 31 -22 14 -19 48 -49 75 -67z m-7319 19 c-4 -81 -23 -168 -36 -168 -5 0 -8 -3 -7 -7 3 -12 -37 -85 -62 -113 -12 -14 -27 -32 -34 -40 -18 -25 -98 -86 -148 -114 -50 -27 -48 -28 -51 17 -3 40 17 136 40 193 20 50 42 82 90 130 36 35 69 64 73 64 5 0 36 25 67 55 32 30 61 55 65 55 4 0 5 -33 3 -72z m2063 -57 l44 -22 -49 -32 c-26 -18 -77 -62 -113 -98 -51 -52 -73 -68 -105 -74 -22 -4 -46 -11 -52 -17 -7 -6 -13 -8 -13 -4 0 8 -84 -38 -130 -71 -52 -39 -109 -102 -141 -158 -29 -49 -32 -48 -31 10 0 98 55 284 97 331 6 6 22 25 37 42 35 39 104 80 176 102 83 26 222 22 280 -9z m3367 9 c22 -7 46 -17 53 -23 6 -5 12 -6 12 -2 0 3 25 -11 55 -33 59 -42 97 -86 121 -142 9 -19 19 -42 23 -50 27 -52 57 -255 40 -266 -5 -3 -16 10 -25 28 -54 104 -177 202 -308 243 -72 23 -85 32 -151 99 -40 40 -87 78 -104 86 -35 14 -38 22 -16 40 44 37 214 48 300 20z m-4285 -22 c81 -86 109 -304 59 -455 l-11 -35 -43 42 c-94 92 -110 180 -60 330 15 47 27 97 26 113 -2 33 2 33 29 5z m4950 -6 c0 -16 8 -53 17 -83 30 -99 33 -110 37 -153 7 -65 -19 -129 -76 -192 l-52 -57 -14 34 c-52 126 -24 360 55 456 24 30 33 29 33 -5z m-3550 -66 c117 -18 243 -103 291 -197 24 -48 49 -142 44 -168 -2 -10 -6 -35 -9 -55 -15 -92 -83 -157 -165 -158 -46 0 -73 13 -99 50 -37 51 -35 117 3 155 21 22 83 22 106 1 10 -9 22 -13 27 -10 11 7 22 56 13 56 -4 0 -7 10 -8 21 -3 33 -33 59 -77 66 -73 13 -120 2 -163 -35 -89 -79 -101 -204 -29 -312 27 -41 96 -88 142 -96 15 -3 31 -7 36 -10 10 -7 87 -15 148 -16 56 -1 145 11 179 24 14 5 37 12 51 15 51 9 204 83 285 138 78 52 251 223 282 279 8 15 18 7 65 -51 146 -181 306 -292 518 -361 139 -46 183 -51 296 -39 146 17 225 61 270 153 55 113 28 224 -71 291 -88 59 -224 16 -225 -72 0 -48 13 -61 41 -41 57 40 131 6 131 -61 1 -56 -7 -79 -40 -114 -22 -24 -36 -30 -68 -30 -58 0 -73 5 -108 33 -99 79 -103 272 -9 389 143 178 410 215 611 83 50 -33 132 -109 178 -167 31 -37 101 -182 110 -225 1 -8 6 -21 9 -30 4 -9 9 -28 10 -42 2 -14 6 -43 9 -65 13 -80 7 -304 -9 -365 -5 -18 -16 -76 -20 -105 -2 -11 -4 -21 -4 -22 -1 -2 -1 -5 -1 -8 0 -3 -6 -21 -14 -40 -8 -19 -13 -35 -11 -35 4 0 -35 -115 -58 -170 -6 -14 -11 -27 -12 -30 -5 -18 -33 -70 -52 -101 l-24 -36 -87 29 c-48 16 -94 31 -102 33 -8 1 -35 8 -60 15 -58 16 -119 28 -185 36 -11 1 -22 3 -24 3 -2 1 18 18 43 39 60 50 105 110 121 162 1 3 7 24 13 46 30 102 67 160 128 201 l26 16 -24 13 c-12 7 -26 10 -30 8 -5 -3 -8 -1 -8 4 0 5 -6 9 -12 10 -7 1 -31 4 -53 8 -165 31 -328 -30 -427 -161 -21 -28 -57 -88 -79 -135 -38 -80 -80 -150 -105 -176 -5 -6 -54 -22 -108 -34 -54 -12 -129 -32 -167 -45 -38 -12 -66 -17 -62 -11 3 6 16 24 27 41 11 16 21 34 23 40 1 5 9 30 18 55 30 80 19 193 -25 280 -49 95 -173 190 -270 206 -48 8 -149 8 -184 0 -63 -15 -140 -59 -192 -110 -133 -134 -153 -337 -48 -482 26 -36 22 -49 -10 -32 -11 7 -28 14 -36 15 -31 7 -35 9 -48 17 -7 4 -16 5 -19 2 -3 -3 -18 1 -34 10 -16 8 -29 13 -29 10 0 -2 -23 2 -52 9 -28 8 -55 12 -59 10 -16 -10 -73 65 -116 155 -83 172 -147 248 -250 300 -26 13 -52 25 -58 26 -5 1 -35 6 -65 12 -79 15 -149 7 -238 -25 -34 -13 -40 -18 -31 -29 6 -8 16 -14 21 -14 25 0 79 -78 103 -149 54 -156 81 -197 165 -263 19 -15 31 -28 25 -29 -5 -1 -23 -3 -40 -4 -16 -2 -30 -4 -30 -5 0 -2 -18 -6 -60 -13 -70 -11 -257 -66 -293 -86 -33 -18 -69 35 -132 193 -28 72 -68 207 -75 253 -2 11 -6 29 -9 40 -3 10 -8 38 -11 63 -3 25 -7 63 -10 85 -6 47 -6 205 0 255 25 220 125 400 291 527 97 75 242 109 374 89z m-3833 -127 c14 -5 28 -7 31 -5 2 3 17 -1 33 -9 15 -8 35 -15 43 -15 16 0 144 -71 178 -98 43 -35 128 -123 128 -132 0 -6 5 -10 10 -10 6 0 10 -6 10 -14 0 -7 6 -19 14 -25 19 -16 53 -81 83 -160 l24 -64 -63 6 c-99 10 -170 35 -253 89 -56 36 -67 50 -142 163 -36 55 -69 102 -74 103 -5 2 -9 8 -9 13 0 11 -152 164 -172 173 -22 10 131 -4 159 -15z m9920 -7 c-61 -50 -148 -147 -195 -217 -26 -38 -50 -71 -54 -73 -5 -2 -8 -11 -8 -19 0 -26 -118 -132 -177 -159 -59 -27 -167 -54 -220 -54 l-33 0 22 58 c52 140 139 260 252 346 58 44 161 98 170 89 3 -4 6 -2 6 4 0 5 6 10 13 11 6 1 48 10 92 20 44 11 99 20 122 20 l43 0 -33 -26z m-6857 -263 c-21 -67 -25 -83 -36 -164 -14 -96 -8 -328 11 -395 2 -8 7 -31 10 -50 22 -132 54 -233 114 -365 18 -38 32 -74 31 -79 -1 -5 2 -12 7 -15 5 -3 20 -26 34 -51 13 -25 26 -47 29 -50 3 -3 21 -30 40 -60 19 -30 37 -57 40 -60 3 -3 32 -41 65 -84 32 -44 73 -94 89 -112 40 -41 107 -115 124 -137 8 -9 11 -21 7 -26 -8 -14 -61 8 -123 51 -59 40 -272 255 -332 334 -25 32 -50 65 -57 72 -7 7 -20 26 -30 42 -9 17 -21 30 -25 30 -4 0 -8 7 -8 15 0 8 -3 15 -8 15 -4 0 -12 9 -17 19 -6 10 -28 49 -49 86 -42 72 -120 245 -129 285 -3 14 -8 36 -11 50 -43 181 -11 403 79 545 39 60 126 155 143 155 6 0 12 5 12 12 0 6 2 9 5 7 2 -3 -5 -34 -15 -70z m3729 -9 c68 -70 121 -156 136 -220 2 -8 9 -31 15 -50 27 -85 30 -270 7 -370 -32 -132 -106 -289 -211 -445 -33 -49 -67 -98 -75 -107 -9 -9 -20 -23 -26 -30 -38 -51 -109 -133 -165 -191 -36 -38 -66 -72 -68 -78 -2 -5 -8 -9 -13 -9 -5 0 -22 -13 -37 -28 -33 -34 -143 -109 -163 -112 -52 -8 -50 5 7 66 26 27 67 74 93 104 25 30 54 64 64 75 128 147 267 391 328 577 58 178 82 323 82 508 1 161 -14 251 -60 377 -6 16 -4 16 18 -2 13 -10 44 -40 68 -65z m-1794 -600 c152 -69 182 -257 60 -376 -46 -46 -78 -57 -170 -57 -59 -1 -77 3 -118 27 -129 76 -155 248 -54 354 31 32 90 66 132 74 36 7 109 -4 150 -22z m-1151 -44 c50 -29 109 -94 134 -146 9 -19 21 -40 27 -46 5 -7 18 -22 28 -34 l19 -22 -50 5 c-47 5 -87 21 -124 50 -9 7 -36 51 -59 98 -22 46 -52 96 -66 111 l-25 26 36 -8 c19 -4 55 -19 80 -34z m2178 11 c-12 -13 -22 -29 -22 -35 0 -7 -4 -12 -10 -12 -5 0 -10 -4 -10 -10 0 -19 -49 -115 -70 -137 -31 -34 -89 -59 -140 -61 -41 -2 -44 -1 -26 12 19 15 33 37 58 86 20 42 94 124 124 140 16 8 31 18 34 21 7 7 74 26 79 22 3 -2 -5 -13 -17 -26z m-3907 -102 c91 -41 93 -45 38 -65 -26 -9 -68 -26 -93 -37 -40 -18 -65 -26 -120 -40 -80 -19 -212 -2 -274 36 -44 28 -45 37 -6 45 17 3 59 16 93 30 34 13 71 27 82 31 11 5 28 10 39 12 10 2 25 7 33 11 31 18 146 5 208 -23z m5810 10 c28 -10 55 -20 60 -24 17 -12 97 -39 138 -46 l39 -6 -24 -21 c-94 -82 -282 -84 -448 -3 -25 12 -57 25 -72 29 -16 3 -28 10 -28 15 0 12 100 61 143 71 48 11 136 4 192 -15z m-7597 -84 c1 -1 5 -1 8 0 4 0 10 -3 13 -8 9 -12 129 -74 153 -78 33 -7 32 -12 -4 -28 -113 -52 -191 -45 -298 27 -37 25 -73 46 -79 46 -35 0 8 29 51 34 3 1 9 4 12 7 4 4 133 4 144 0z m9303 -15 l34 -14 -30 -13 c-17 -8 -32 -16 -35 -19 -17 -18 -100 -69 -128 -78 -17 -6 -56 -9 -85 -7 -80 6 -179 54 -126 61 5 1 10 2 12 4 1 1 9 3 18 5 9 1 36 15 60 31 24 15 62 33 84 39 49 15 150 10 196 -9z m-8651 -161 c36 -4 68 -9 73 -12 4 -2 20 -7 35 -9 29 -5 138 -42 161 -54 8 -4 -30 -8 -85 -8 -219 -1 -366 -36 -560 -132 -128 -63 -133 -65 -127 -40 8 35 46 98 88 148 44 50 140 99 216 108 30 3 55 7 56 8 4 3 69 -1 143 -9z m8055 -5 c107 -24 191 -90 244 -195 43 -82 40 -90 -16 -58 -155 87 -309 144 -422 158 -22 3 -60 7 -83 10 -24 3 -85 6 -135 7 -51 0 -93 2 -93 4 0 5 68 33 94 38 11 3 37 10 56 16 51 16 68 20 135 26 33 3 61 7 63 9 6 5 111 -5 157 -15z m-4859 -205 c121 -9 141 -13 239 -39 33 -10 65 -18 71 -19 29 -6 162 -78 167 -90 3 -7 -21 -40 -52 -73 -73 -79 -94 -104 -117 -142 -10 -18 -22 -32 -26 -32 -4 0 -8 -6 -8 -13 0 -7 -11 -28 -24 -48 -32 -47 -73 -145 -102 -244 -27 -93 -24 -80 -24 -105 0 -11 -4 -20 -10 -20 -10 0 -221 173 -310 254 -131 120 -174 161 -281 267 -112 112 -176 186 -168 193 8 7 54 30 64 32 6 2 35 12 66 23 31 11 69 23 85 25 16 3 44 10 63 16 19 5 38 7 42 4 5 -3 15 -2 21 2 7 5 58 10 113 12 55 2 102 6 104 8 2 2 7 1 11 -1 4 -2 38 -7 76 -10z m1660 1 c61 -5 100 -11 193 -30 31 -7 90 -25 116 -36 11 -4 41 -16 67 -26 l46 -18 -41 -51 c-69 -84 -328 -336 -472 -460 -32 -27 -63 -55 -69 -60 -9 -9 -51 -43 -159 -131 -18 -15 -38 -19 -35 -6 3 13 -22 113 -48 188 -50 145 -137 285 -251 404 -59 62 -61 66 -45 83 45 50 249 122 367 130 17 2 35 5 40 8 6 3 53 6 105 8 52 1 97 4 99 7 2 2 7 2 10 -1 4 -2 38 -6 77 -9z m2474 -148 c39 -20 103 -89 130 -142 14 -27 33 -53 43 -60 27 -17 20 -26 -20 -26 -101 0 -168 48 -232 169 -24 45 -49 81 -55 81 -6 0 -5 4 3 9 13 9 84 -8 131 -31z m-6720 -7 c0 -5 -7 -14 -15 -21 -8 -7 -15 -18 -15 -25 0 -8 -3 -15 -7 -17 -5 -1 -19 -24 -32 -50 -48 -97 -117 -139 -223 -137 -38 0 -41 2 -20 11 12 6 22 17 22 25 0 7 3 13 8 13 4 0 16 19 27 43 30 63 102 130 161 148 59 18 94 22 94 10z m1245 -87 c69 -11 68 -11 88 -12 13 -2 7 -11 -25 -39 -23 -21 -55 -50 -72 -65 -17 -16 -36 -28 -43 -28 -7 0 -13 -4 -13 -9 0 -8 -22 -18 -60 -27 -46 -10 -97 -10 -162 3 -40 7 -98 15 -128 17 -30 2 -57 4 -59 5 -9 2 53 61 93 88 23 15 44 32 47 36 3 5 8 8 10 7 2 -1 18 4 34 10 69 27 181 32 290 14z m4372 -4 c74 -24 180 -97 203 -140 9 -16 5 -18 -33 -17 -41 0 -92 -6 -152 -19 -116 -25 -205 2 -298 89 -30 29 -63 57 -73 63 -14 8 -3 13 62 23 43 7 86 14 94 15 36 6 163 -3 197 -14z m-2297 1 c0 -5 13 -14 30 -21 16 -7 27 -16 24 -21 -3 -5 0 -9 6 -9 16 0 106 -93 157 -162 70 -94 130 -227 148 -333 21 -119 7 -265 -25 -265 -5 0 -10 -6 -10 -14 0 -8 -4 -16 -8 -18 -9 -3 -265 -343 -310 -411 l-25 -38 -21 23 c-12 13 -32 39 -46 58 -13 19 -27 37 -30 40 -3 3 -22 27 -41 55 -18 27 -42 59 -53 70 -10 11 -29 36 -41 56 -13 20 -29 42 -37 50 -7 8 -33 41 -57 74 -25 33 -52 66 -60 73 -23 19 -22 172 3 288 14 68 88 235 107 242 5 2 7 8 3 13 -3 5 -1 9 4 9 5 0 21 17 35 38 66 101 247 249 247 203z m-414 -1239 c26 -37 52 -68 56 -70 4 -2 8 -10 8 -17 0 -8 6 -20 14 -28 8 -8 45 -60 82 -116 l66 -102 -18 -35 c-11 -20 -27 -44 -36 -54 -10 -11 -18 -22 -18 -26 0 -3 -20 -34 -44 -68 -24 -33 -55 -78 -68 -98 l-26 -37 -11 42 c-16 61 -25 116 -36 212 -3 28 -8 64 -11 80 -13 83 -23 396 -12 389 3 -2 28 -35 54 -72z m848 -29 c-3 -107 -12 -235 -19 -298 -3 -22 -7 -60 -10 -85 -7 -53 -33 -197 -41 -223 -4 -13 -34 25 -110 137 -57 86 -104 158 -104 161 0 7 191 297 200 305 3 3 21 26 40 53 18 26 37 47 40 47 4 0 6 -44 4 -97z m-273 -725 c33 -42 59 -82 59 -87 0 -6 5 -11 10 -11 6 0 10 -6 10 -12 0 -7 9 -24 19 -37 18 -24 18 -25 -10 -94 -16 -39 -34 -76 -40 -84 -6 -7 -9 -13 -6 -13 5 0 -25 -60 -136 -275 -17 -33 -32 -62 -32 -65 -1 -3 -13 -29 -28 -59 l-26 -54 -135 272 c-75 150 -141 290 -147 311 -11 36 -9 42 25 99 52 84 138 194 203 258 l56 54 60 -63 c33 -35 86 -98 118 -140z m-443 -630 c77 -156 148 -305 157 -332 15 -47 15 -49 -16 -140 -35 -103 -92 -352 -84 -366 3 -5 2 -11 -3 -14 -4 -2 -9 -22 -10 -44 -2 -22 -5 -50 -7 -63 -22 -111 -23 -561 -1 -679 3 -14 7 -43 10 -65 4 -33 22 -127 41 -205 16 -69 38 -147 45 -155 14 -18 21 -82 11 -106 -5 -13 -9 -28 -9 -33 0 -5 -4 -12 -9 -15 -4 -3 -26 -42 -48 -86 -42 -83 -115 -200 -170 -272 l-32 -42 -19 34 c-10 19 -22 35 -26 35 -5 0 -8 5 -8 11 0 6 -14 30 -30 54 -16 24 -30 48 -30 53 0 6 -3 12 -8 14 -12 5 -101 186 -142 289 -55 138 -128 435 -135 554 -2 28 -7 58 -11 69 -9 24 -10 341 -1 436 12 118 17 163 22 195 2 17 7 48 10 70 3 22 10 63 15 90 13 66 23 127 23 143 0 6 4 12 9 12 5 0 7 4 4 8 -4 7 32 168 54 237 5 17 20 64 34 105 32 100 86 243 97 255 5 5 9 17 9 27 0 10 5 18 10 18 6 0 10 5 10 12 0 20 84 178 95 178 2 0 66 -127 143 -282z m688 259 c6 -12 32 -62 57 -112 59 -118 145 -332 156 -387 2 -8 2 -10 24 -83 32 -106 78 -313 92 -413 2 -15 6 -40 8 -57 12 -69 20 -137 33 -260 9 -86 11 -354 3 -420 -16 -134 -20 -161 -41 -260 -11 -55 -21 -109 -23 -120 -1 -11 -5 -27 -8 -35 -4 -8 -8 -26 -11 -40 -6 -40 -62 -199 -92 -265 -15 -33 -28 -66 -30 -73 -1 -7 -7 -19 -14 -27 -6 -7 -24 -38 -39 -68 -39 -76 -145 -247 -153 -247 -9 0 -120 151 -125 173 -3 9 -8 17 -12 17 -16 0 -134 250 -134 282 0 18 16 85 36 148 37 121 39 132 62 275 22 138 27 205 27 395 1 336 -34 577 -123 856 l-29 91 29 70 c36 88 283 583 290 583 3 0 11 -10 17 -23z m-401 -997 c12 -54 29 -156 42 -260 2 -19 6 -145 8 -280 3 -214 -1 -292 -19 -400 -17 -99 -23 -134 -26 -137 -2 -2 -3 -6 -4 -10 -1 -5 -6 -23 -10 -41 -10 -43 -23 -31 -41 39 -40 152 -50 258 -50 509 0 198 7 347 20 410 3 14 8 41 11 60 3 19 7 42 9 50 2 8 7 31 10 50 3 19 11 51 17 70 l12 35 8 -35 c4 -19 10 -46 13 -60z m-910 -1320 c4 -22 50 -154 78 -230 34 -89 108 -243 151 -314 20 -32 36 -60 36 -62 0 -2 18 -30 40 -61 l40 -58 -63 -60 c-79 -75 -92 -86 -197 -162 -120 -88 -129 -94 -136 -92 -4 0 -10 -3 -13 -8 -8 -12 -143 -93 -206 -123 -88 -43 -85 -44 -55 18 33 67 125 336 136 397 1 6 3 13 4 18 3 9 4 15 13 57 14 67 17 85 22 125 3 22 8 47 10 55 2 8 6 35 9 60 6 51 13 93 22 130 3 14 8 36 10 50 11 60 16 83 43 186 11 45 23 92 25 105 3 13 5 26 6 29 2 6 21 -40 25 -60z m1808 18 c5 -34 12 -66 21 -96 3 -9 7 -28 10 -42 2 -14 9 -43 14 -65 6 -22 13 -53 16 -70 9 -50 45 -258 51 -295 14 -87 35 -188 44 -213 6 -15 9 -27 6 -27 -2 0 2 -18 10 -40 8 -22 15 -42 15 -45 4 -29 92 -270 111 -302 10 -18 17 -33 15 -33 -7 0 -183 93 -216 115 -218 141 -323 220 -432 323 l-47 45 27 41 c15 22 29 43 32 46 3 3 11 16 19 30 8 14 27 48 43 75 84 150 165 339 213 502 16 51 31 90 35 88 4 -3 10 -19 13 -37z m-825 -436 c12 -16 22 -34 22 -39 0 -6 9 -18 20 -28 11 -10 20 -22 20 -27 0 -5 30 -47 66 -94 37 -48 63 -89 58 -93 -5 -3 -20 -22 -34 -41 -47 -67 -233 -260 -251 -260 -13 0 -188 179 -241 247 l-48 61 30 38 c16 22 33 44 38 49 24 31 82 116 82 120 0 2 13 23 29 47 25 38 62 103 101 177 12 22 13 21 49 -52 21 -41 48 -88 59 -105z m-528 -450 c0 -9 116 -130 182 -189 l47 -43 -67 -38 c-64 -37 -81 -45 -182 -90 -46 -20 -161 -61 -192 -68 -10 -2 -26 -6 -35 -8 -68 -18 -173 -37 -226 -42 -85 -8 -209 -11 -225 -6 -12 4 170 112 190 112 4 0 8 4 8 8 0 5 15 16 33 25 47 24 60 33 182 123 109 80 152 115 227 187 38 35 58 46 58 29z m906 -19 c166 -157 395 -318 592 -419 41 -20 69 -40 63 -43 -5 -4 -50 -5 -98 -3 -48 1 -103 3 -120 4 -18 0 -33 4 -33 9 0 5 -6 6 -14 3 -29 -11 -236 39 -366 89 -110 42 -290 134 -290 149 0 4 19 24 42 45 66 60 178 176 178 185 0 15 17 8 46 -19z"/>
	</g>
</svg>